<?xml version="1.0" encoding="UTF-8" standalone="no"?>
<!-- Created with Inkscape (http://www.inkscape.org/) -->

<svg
   xmlns:dc="http://purl.org/dc/elements/1.1/"
   xmlns:cc="http://creativecommons.org/ns#"
   xmlns:rdf="http://www.w3.org/1999/02/22-rdf-syntax-ns#"
   xmlns:svg="http://www.w3.org/2000/svg"
   xmlns="http://www.w3.org/2000/svg"
   xmlns:xlink="http://www.w3.org/1999/xlink"
   xmlns:sodipodi="http://sodipodi.sourceforge.net/DTD/sodipodi-0.dtd"
   xmlns:inkscape="http://www.inkscape.org/namespaces/inkscape"
   width="210mm"
   height="297mm"
   viewBox="0 0 744.09448819 1052.3622047"
   id="svg2"
   version="1.1"
   inkscape:version="0.91 r13725"
   sodipodi:docname="coat-of-arms-simple.svg">
  <defs
     id="defs4" />
  <sodipodi:namedview
     id="base"
     pagecolor="#ffffff"
     bordercolor="#666666"
     borderopacity="1.0"
     inkscape:pageopacity="0.0"
     inkscape:pageshadow="2"
     inkscape:zoom="1.979899"
     inkscape:cx="362.11388"
     inkscape:cy="781.83468"
     inkscape:document-units="px"
     inkscape:current-layer="layer1"
     showgrid="false"
     inkscape:window-width="1280"
     inkscape:window-height="729"
     inkscape:window-x="0"
     inkscape:window-y="24"
     inkscape:window-maximized="1"
     showguides="true">
    <inkscape:grid
       type="xygrid"
       id="grid4164" />
  </sodipodi:namedview>
  <metadata
     id="metadata7">
    <rdf:RDF>
      <cc:Work
         rdf:about="">
        <dc:format>image/svg+xml</dc:format>
        <dc:type
           rdf:resource="http://purl.org/dc/dcmitype/StillImage" />
        <dc:title />
      </cc:Work>
    </rdf:RDF>
  </metadata>
  <g
     inkscape:label="Layer 1"
     inkscape:groupmode="layer"
     id="layer1">
    <rect
       style="opacity:1;fill:#ffffff;fill-opacity:1;fill-rule:nonzero;stroke:#323288;stroke-width:8.47683334;stroke-linecap:round;stroke-linejoin:round;stroke-miterlimit:4;stroke-dasharray:none;stroke-opacity:1"
       id="rect4172"
       width="808.52313"
       height="1109.9518"
       x="-27.833014"
       y="-12.613662"
       rx="1.1645397"
       ry="1.2592646" />
    <image
       sodipodi:absref="/home/michael/Downloads/praybook-images/out-000.ppm"
       y="1.2748674"
       x="18.14678"
       id="image4163"
       xlink:href="file:///home/michael/Downloads/praybook-images/out-000.ppm"
       preserveAspectRatio="none"
       height="1052.373"
       width="708.13885" />
    <ellipse
       style="color:#000000;clip-rule:nonzero;display:inline;overflow:visible;visibility:visible;opacity:1;isolation:auto;mix-blend-mode:normal;color-interpolation:sRGB;color-interpolation-filters:linearRGB;solid-color:#000000;solid-opacity:1;fill:none;fill-opacity:1;fill-rule:nonzero;stroke:#000000;stroke-width:7.15941238;stroke-linecap:round;stroke-linejoin:round;stroke-miterlimit:4;stroke-dasharray:none;stroke-dashoffset:0;stroke-opacity:1;color-rendering:auto;image-rendering:auto;shape-rendering:auto;text-rendering:auto;enable-background:accumulate"
       id="path4166"
       cx="375.71426"
       cy="574.2959"
       rx="239.6794"
       ry="303.8067" />
    <ellipse
       style="color:#000000;clip-rule:nonzero;display:inline;overflow:visible;visibility:visible;opacity:1;isolation:auto;mix-blend-mode:normal;color-interpolation:sRGB;color-interpolation-filters:linearRGB;solid-color:#000000;solid-opacity:1;fill:none;fill-opacity:1;fill-rule:nonzero;stroke:#000000;stroke-width:6.05483389;stroke-linecap:round;stroke-linejoin:round;stroke-miterlimit:4;stroke-dasharray:none;stroke-dashoffset:0;stroke-opacity:1;color-rendering:auto;image-rendering:auto;shape-rendering:auto;text-rendering:auto;enable-background:accumulate"
       id="path4168"
       cx="375.35715"
       cy="574.50507"
       rx="215.22603"
       ry="282.01181" />
    <path
       style="fill:none;fill-rule:evenodd;stroke:#000000;stroke-width:7;stroke-linecap:butt;stroke-linejoin:miter;stroke-miterlimit:4;stroke-dasharray:none;stroke-opacity:1"
       d="m 269.0831,909.9307 c 32.30933,6.20293 56.08056,0.81661 82.32799,7.57742 16.72004,15.28192 33.11898,14.32442 47.48036,-0.91666 22.90023,-7.46505 56.81117,-3.96913 76.26277,-6.66076 l 0,12.6269 c -70.27512,72.46043 -139.51018,57.3223 -207.08127,-0.50507 z"
       id="path4171"
       inkscape:connector-curvature="0"
       sodipodi:nodetypes="ccccccc" />
    <path
       style="fill:#ffffff;fill-opacity:1;fill-rule:evenodd;stroke:#000000;stroke-width:7;stroke-linecap:butt;stroke-linejoin:miter;stroke-miterlimit:4;stroke-dasharray:none;stroke-opacity:1"
       d="m 122.14286,452.3622 c -11.22998,59.31178 -57.581282,250.30561 83.57143,374.28572 25.19589,-7.12493 64.21051,-3.56239 77.14286,4.28571 18.78329,11.05636 41.26923,31.15509 45,47.85715 6.08402,28.64976 0.58744,60.22464 -22.14286,72.85714 -20.57127,12.65496 -54.71195,17.35894 -78.57143,6.42857 -17.95915,-9.36386 -24.33617,-23.07195 -24.74002,-38.15301 0.30283,-14.55019 5.18803,-24.87845 19.74002,-33.27556 17.34709,-7.85068 34.64819,-8.70754 47.5,2.85714 7.61192,6.94414 9.76438,11.9078 11.07143,25 0.35712,6.41369 1.30652,15.4907 -4.28572,18.57143 -4.49503,2.53662 -10.68701,3.38049 -15,-2.14286 -3.99833,-4.81119 2.64742,-16.69503 -3.57142,-22.85714 -3.81933,-4.54691 -15.0469,-6.6191 -22.14286,0.71429 -5.45992,7.22067 -4.83514,14.61865 0,20 8.33333,7.2319 15.95238,9.01577 24.28571,9.99999 8.24566,0.62769 14.82656,-0.15018 25.71429,-7.14285 13.57365,-10.04695 20.43561,-22.10741 15,-37.85714 -5.31243,-13.57143 -9.36715,-27.14286 -35,-40.71429 -13.09524,-7.10339 -39.04762,-9.90654 -58.57143,5 -129.018418,-96.04991 -149.043229,-243.60228 -105,-421.42857 z"
       id="path4170"
       inkscape:connector-curvature="0"
       sodipodi:nodetypes="cccccccccccccccccccccc" />
    <path
       style="fill:#ffffff;fill-opacity:1;fill-rule:evenodd;stroke:#000000;stroke-width:7;stroke-linecap:butt;stroke-linejoin:miter;stroke-miterlimit:4;stroke-dasharray:none;stroke-opacity:1"
       d="m 628.15192,451.16161 c 11.22998,59.31178 57.58128,250.30562 -83.57143,374.28573 -25.19589,-7.12493 -64.21051,-3.56239 -77.14286,4.28571 -18.78329,11.05636 -41.26923,31.15509 -45,47.85715 -6.08402,28.64976 -0.58744,60.22459 22.14286,72.85709 20.57127,12.655 54.71195,17.359 78.57143,6.4286 17.95915,-9.3638 24.33617,-23.0719 24.74002,-38.15299 -0.30283,-14.55019 -5.18803,-24.87845 -19.74002,-33.27556 -17.34709,-7.85068 -34.64819,-8.70754 -47.5,2.85714 -7.61192,6.94414 -9.76438,11.9078 -11.07143,25 -0.35712,6.41369 -1.30652,15.49071 4.28572,18.57141 4.49503,2.5366 10.68701,3.3805 15,-2.1428 3.99833,-4.81123 -2.64742,-16.69507 3.57142,-22.85718 3.81933,-4.54691 15.0469,-6.6191 22.14286,0.71429 5.45992,7.22067 4.83514,14.61865 0,20 -8.33333,7.23189 -15.95238,9.01579 -24.28571,9.99999 -8.24566,0.6277 -14.82656,-0.1502 -25.71429,-7.1429 -13.57365,-10.0469 -20.43561,-22.10736 -15,-37.85709 5.31243,-13.57143 9.36715,-27.14286 35,-40.71429 13.09524,-7.10339 39.04762,-9.90654 58.57143,5 129.01842,-96.04991 149.04323,-243.60228 105,-421.42858 z"
       id="path4170-3"
       inkscape:connector-curvature="0"
       sodipodi:nodetypes="cccccccccccccccccccccc" />
    <path
       style="fill:none;fill-rule:evenodd;stroke:#000000;stroke-width:7;stroke-linecap:butt;stroke-linejoin:miter;stroke-miterlimit:4;stroke-dasharray:none;stroke-opacity:1"
       d="m 320.39168,960.43832 c 21.71249,16.41208 31.63119,64.32538 57.57869,62.12438 26.05096,-2.2097 28.13403,-39.18304 54.54824,-63.13453 0,0 -35.42721,26.11046 -56.06347,26.26397 -20.49568,0.15246 -56.06346,-25.25382 -56.06346,-25.25382 z"
       id="path4173"
       inkscape:connector-curvature="0"
       sodipodi:nodetypes="cscsc" />
    <path
       style="fill:#ffffff;fill-opacity:1;fill-rule:evenodd;stroke:#000000;stroke-width:6;stroke-linecap:butt;stroke-linejoin:miter;stroke-miterlimit:4;stroke-dasharray:none;stroke-opacity:1"
       d="m 357.594,903.06884 c -5.86144,-4.58647 -15.29899,6.7758 -10.10152,13.13198 17.75775,22.49138 8.54757,56.82472 -22.07543,44.65592 -7.42011,-1.11824 -13.1818,7.2449 -9.59645,15.15229 20.64975,37.22837 78.05633,-26.40881 41.7734,-72.94019 z"
       id="path4175"
       inkscape:connector-curvature="0"
       sodipodi:nodetypes="ccccc" />
    <path
       style="fill:#ffffff;fill-opacity:1;fill-rule:evenodd;stroke:#000000;stroke-width:6;stroke-linecap:butt;stroke-linejoin:miter;stroke-miterlimit:4;stroke-dasharray:none;stroke-opacity:1"
       d="m 394.43446,903.67828 c 5.86144,-4.58647 15.29899,6.7758 10.10152,13.13198 -17.75775,22.49135 -8.54757,56.82475 22.07543,44.65595 7.42011,-1.1183 13.1818,7.2449 9.59645,15.1523 -20.64975,37.22829 -78.05633,-26.4088 -41.7734,-72.94023 z"
       id="path4175-6"
       inkscape:connector-curvature="0"
       sodipodi:nodetypes="ccccc" />
    <path
       style="fill:none;fill-rule:evenodd;stroke:#000000;stroke-width:6;stroke-linecap:butt;stroke-linejoin:miter;stroke-opacity:1;stroke-miterlimit:4;stroke-dasharray:none"
       d="m 376.78572,20.219343 -19.64286,20.000001 c 27.89929,32.963327 9.26642,44.868091 -19.28571,19.285714 l -17.14286,20 18.57143,20.714282 c 24.7788,-22.662969 46.03193,-4.249893 22.14285,23.57143 l 17.14286,17.85715 17.85714,-18.57143 C 374.3213,96.318714 391.34595,79.8276 417.14286,101.64791 L 435.71429,83.076487 417.14286,64.505058 c -25.87159,27.378815 -47.02845,8.399817 -20,-25 z"
       id="path4192"
       inkscape:connector-curvature="0"
       sodipodi:nodetypes="ccccccccccccc" />
    <path
       style="fill:#ffffff;fill-opacity:1;fill-rule:evenodd;stroke:#000000;stroke-width:5;stroke-linecap:butt;stroke-linejoin:miter;stroke-opacity:1;stroke-miterlimit:4;stroke-dasharray:none"
       d="m 107.14286,520.21935 c 15.62009,-0.15592 17.09392,7.96262 17.14285,15.71429 0.0712,11.28161 -4.52708,17.55307 -10,17.85714 -10.22382,0.56803 -9.77349,-5.96211 -7.77048,-14.07651 -6.16065,12.19337 -14.560948,51.54291 2.77048,51.93365 19.74652,0.44519 25.65119,4.22389 26.42857,10 1.86824,13.88156 -15.51939,12.69899 -24.99999,6.42857 14.52162,15.71538 33.61085,30.60169 30.71428,53.57143 -4.4879,35.58899 -29.04171,40.68119 -46.428571,38.57143 -9.587736,-1.4406 -5.871168,-18.59923 3.571429,-15.71429 30.615632,9.3538 22.167112,-41.92906 12.857142,-55.71428 8.28832,11.86577 20.1295,63.01879 -10.37885,55.46507 -13.428168,-3.32475 -15.166304,15.89754 -4.870587,16.35768 0,0 -8.489541,4.80042 -15.464848,5.32011 -8.568815,0.63841 -18.688479,-11.34987 -1.428571,-25.35714 28.494046,-19.28572 11.7025,-38.21429 15,-57.50001 -3.818275,11.32944 4.330032,32.37373 -15,30 C 62.895263,651.06374 71.752726,633.22335 80,613.79078 84.779749,602.52853 74.175699,571.80754 77.753394,553.02883 79.866041,541.9399 88.865999,520.40179 107.14286,520.21935 Z"
       id="path4144"
       inkscape:connector-curvature="0"
       sodipodi:nodetypes="ssscsscscscscsccssss" />
    <path
       style="fill:#ffffff;fill-opacity:1;fill-rule:evenodd;stroke:#000000;stroke-width:5;stroke-linecap:butt;stroke-linejoin:miter;stroke-miterlimit:4;stroke-dasharray:none;stroke-opacity:1"
       d="m 643.53222,521.16695 c -15.62009,-0.15592 -17.09392,7.96262 -17.14285,15.71429 -0.0712,11.28161 4.52708,17.55307 10,17.85714 10.22382,0.56803 9.77349,-5.96211 7.77048,-14.07651 6.16065,12.19337 14.56095,51.54291 -2.77048,51.93365 -19.74652,0.44519 -25.65119,4.22389 -26.42857,10 -1.86824,13.88156 15.51939,12.69899 24.99999,6.42857 -14.52162,15.71538 -33.61085,30.60169 -30.71428,53.57143 4.4879,35.58899 29.04171,40.68119 46.42857,38.57143 9.58774,-1.4406 5.87117,-18.59923 -3.57143,-15.71429 -30.61563,9.3538 -22.16711,-41.92906 -12.85714,-55.71428 -8.28832,11.86577 -20.1295,63.01879 10.37885,55.46507 13.42817,-3.32475 15.1663,15.89754 4.87059,16.35768 0,0 8.48954,4.80042 15.46484,5.32011 8.56882,0.63841 18.68848,-11.34987 1.42857,-25.35714 -28.49404,-19.28572 -11.7025,-38.21429 -15,-57.50001 3.81828,11.32944 -4.33003,32.37373 15,30 16.39046,-2.01275 7.53299,-19.85314 -0.71428,-39.28571 -4.77975,-11.26225 5.8243,-41.98324 2.2466,-60.76195 -2.11264,-11.08893 -11.1126,-32.62704 -29.38946,-32.80948 z"
       id="path4144-3"
       inkscape:connector-curvature="0"
       sodipodi:nodetypes="ssscsscscscscsccssss" />
    <g
       id="g4209">
      <path
         sodipodi:nodetypes="cccccccccc"
         inkscape:connector-curvature="0"
         id="path4167"
         d="m 352.92577,155.26009 c 7.14276,-24.9427 42.9973,-24.20591 50.63017,0.4797 9.11576,-0.32461 12.66107,8.23138 9.68311,15.50943 32.51753,-16.07258 47.39188,-7.52285 44.86513,19.45287 -30.78342,6.98895 -55.97601,23.63774 -56.06347,62.62946 -15.54496,-6.02143 -23.25303,0.61798 -29.7995,8.58629 -5.6066,-8.58988 -14.42749,-15.07117 -31.8198,-9.09137 2.87705,-40.97916 -12.32529,-55.04846 -42.42641,-62.86405 -0.20427,-35.13987 25.42033,-30.99689 45.814,-19.21828 0.3339,-4.56281 -4.10442,-12.20997 9.11677,-15.48405 z"
         style="fill:#ffffff;fill-opacity:1;fill-rule:evenodd;stroke:#000000;stroke-width:5;stroke-linecap:butt;stroke-linejoin:miter;stroke-miterlimit:4;stroke-dasharray:none;stroke-opacity:1" />
      <path
         sodipodi:nodetypes="cc"
         inkscape:connector-curvature="0"
         id="path4169"
         d="m 413.21428,171.11221 c -18.60694,11.2819 -22.5657,35.39328 -24.72951,59.46428"
         style="fill:none;fill-rule:evenodd;stroke:#000000;stroke-width:5;stroke-linecap:round;stroke-linejoin:miter;stroke-miterlimit:4;stroke-dasharray:none;stroke-opacity:1" />
      <path
         sodipodi:nodetypes="cc"
         inkscape:connector-curvature="0"
         id="path4172"
         d="m 341.42857,169.14792 c 18.0028,15.04622 21.34543,36.52967 20.35715,61.07143"
         style="fill:none;fill-rule:evenodd;stroke:#000000;stroke-width:5;stroke-linecap:round;stroke-linejoin:miter;stroke-miterlimit:4;stroke-dasharray:none;stroke-opacity:1" />
      <path
         sodipodi:nodetypes="cccc"
         inkscape:connector-curvature="0"
         id="path4174"
         d="m 368.92857,163.79078 c -1.97222,-12.43846 20.66077,-10.51543 18.21429,-0.35714 -12.14862,21.85057 -6.66837,47.61867 -10,71.42857 -1.47929,-24.52968 2.51044,-49.61014 -8.21429,-71.07143 z"
         style="fill:#000000;fill-opacity:1;fill-rule:evenodd;stroke:#000000;stroke-width:1px;stroke-linecap:butt;stroke-linejoin:miter;stroke-opacity:1" />
      <path
         sodipodi:nodetypes="cccc"
         inkscape:connector-curvature="0"
         id="path4178"
         d="m 317.85714,187.36221 c -4.83922,-3.4023 0.992,-9.38236 7.14286,-7.14286 21.16645,7.00248 26.42288,27.07399 26.42857,50 -5.81908,-29.11272 -18.28307,-34.96792 -33.57143,-42.85714 z"
         style="fill:#000000;fill-opacity:1;fill-rule:evenodd;stroke:#000000;stroke-width:1px;stroke-linecap:butt;stroke-linejoin:miter;stroke-opacity:1" />
      <path
         sodipodi:nodetypes="cccc"
         inkscape:connector-curvature="0"
         id="path4178-6"
         d="m 431.81973,187.18134 c 4.83922,-3.4023 -0.992,-9.38236 -7.14286,-7.14286 -21.16645,7.00248 -26.42288,27.07399 -26.42857,50 5.81908,-29.11272 18.28307,-34.96792 33.57143,-42.85714 z"
         style="fill:#000000;fill-opacity:1;fill-rule:evenodd;stroke:#000000;stroke-width:1px;stroke-linecap:butt;stroke-linejoin:miter;stroke-opacity:1" />
    </g>
  </g>
</svg>
